<svg xmlns="http://www.w3.org/2000/svg" width="1200" height="760" viewBox="0 0 1200 760" role="img" aria-labelledby="title desc">
  <title id="title">Flujo interno del backend Express</title>
  <desc id="desc">Diagrama del procesamiento en server index js: endpoints, multer, conversion, fallback de imagenes y limpieza temporal.</desc>
  <defs>
    <marker id="arrow" markerWidth="12" markerHeight="12" refX="10" refY="6" orient="auto">
      <path d="M2,2 L10,6 L2,10 Z" fill="#7c3aed"/>
    </marker>
    <style>
      .bg { fill: #f8fafc; }
      .title { font: 700 30px Arial, sans-serif; fill: #0f172a; }
      .subtitle { font: 400 16px Arial, sans-serif; fill: #475569; }
      .node { fill: white; stroke: #cbd5e1; stroke-width: 2; rx: 16; }
      .api { fill: #eef2ff; stroke: #818cf8; }
      .safe { fill: #ecfdf5; stroke: #34d399; }
      .warn { fill: #fffbeb; stroke: #f59e0b; }
      .danger { fill: #fff1f2; stroke: #fb7185; }
      .label { font: 700 17px Arial, sans-serif; fill: #111827; }
      .body { font: 400 13px Arial, sans-serif; fill: #475569; }
      .mono { font: 400 13px Consolas, monospace; fill: #334155; }
      .arrow { stroke: #7c3aed; stroke-width: 3; fill: none; marker-end: url(#arrow); }
      .dash { stroke: #94a3b8; stroke-width: 2; stroke-dasharray: 8 7; fill: none; marker-end: url(#arrow); }
    </style>
  </defs>

  <rect class="bg" width="1200" height="760"/>
  <text x="60" y="58" class="title">Backend robusto en server/index.js</text>
  <text x="60" y="86" class="subtitle">El backend valida, convierte, normaliza errores y limpia temporales aunque falle una conversion.</text>

  <rect x="70" y="145" width="240" height="110" class="node api"/>
  <text x="96" y="180" class="label">Entrada HTTP</text>
  <text x="96" y="208" class="mono">POST /transformfile</text>
  <text x="96" y="231" class="mono">POST /transformfiles</text>

  <rect x="380" y="145" width="240" height="110" class="node safe"/>
  <text x="406" y="180" class="label">Multer</text>
  <text x="406" y="208" class="body">memoryStorage</text>
  <text x="406" y="231" class="body">limite tamano + filtro PDF</text>

  <rect x="690" y="145" width="240" height="110" class="node safe"/>
  <text x="716" y="180" class="label">Normalizacion</text>
  <text x="716" y="208" class="mono">getValidMode(mode)</text>
  <text x="716" y="231" class="mono">sendError(...)</text>

  <rect x="380" y="330" width="240" height="125" class="node warn"/>
  <text x="406" y="365" class="label">convertPdfBuffer</text>
  <text x="406" y="393" class="body">crea PDF temporal</text>
  <text x="406" y="416" class="body">crea outputDir</text>
  <text x="406" y="439" class="body">llama OpenDataLoader</text>

  <rect x="690" y="330" width="240" height="125" class="node warn"/>
  <text x="716" y="365" class="label">Imagenes</text>
  <text x="716" y="393" class="body">intenta external imageOutput</text>
  <text x="716" y="416" class="body">lee assets y dataUri</text>
  <text x="716" y="439" class="body">fallback sin imagenes</text>

  <rect x="380" y="535" width="240" height="125" class="node safe"/>
  <text x="406" y="570" class="label">Respuesta</text>
  <text x="406" y="598" class="body">lee .json o .md</text>
  <text x="406" y="621" class="body">devuelve result item</text>
  <text x="406" y="644" class="mono">results: [...]</text>

  <rect x="690" y="535" width="240" height="125" class="node danger"/>
  <text x="716" y="570" class="label">Finally</text>
  <text x="716" y="598" class="body">borra PDF temporal</text>
  <text x="716" y="621" class="body">borra outputDir</text>
  <text x="716" y="644" class="body">evita residuos locales</text>

  <path class="arrow" d="M310 200 H370"/>
  <path class="arrow" d="M620 200 H680"/>
  <path class="arrow" d="M810 255 C810 298 620 292 545 323"/>
  <path class="arrow" d="M620 392 H680"/>
  <path class="arrow" d="M500 455 V525"/>
  <path class="dash" d="M810 455 V525"/>
  <path class="dash" d="M620 598 H680"/>

  <rect x="74" y="540" width="236" height="118" class="node"/>
  <text x="99" y="574" class="label">Batch</text>
  <text x="99" y="602" class="body">for...of sobre files</text>
  <text x="99" y="625" class="body">si un PDF falla</text>
  <text x="99" y="648" class="body">solo falla ese item</text>
  <path class="arrow" d="M190 255 C190 382 272 520 370 594"/>
</svg>
